PathFileType	4	(X/Y/Z)	58_2_32_p1_0-273_filt_butterworth.trc
DataRate	CameraRate	NumFrames	NumMarkers	Units	OrigDataRate	OrigDataStartFrame	OrigNumFrames
52.0	52.0	6	27	m	52.0	34	273
Frame#	Time	RHip			RKnee			RAnkle			RBigToe			RSmallToe			RHeel			LHip			LKnee			LAnkle			LBigToe			LSmallToe			LHeel			Neck			Head			Nose			RShoulder			RElbow			RWrist			RThumb			RIndex			RPinky			LShoulder			LElbow			LWrist			LThumb			LIndex			LPinky			
		X1	Y1	Z1	X2	Y2	Z2	X3	Y3	Z3	X4	Y4	Z4	X5	Y5	Z5	X6	Y6	Z6	X7	Y7	Z7	X8	Y8	Z8	X9	Y9	Z9	X10	Y10	Z10	X11	Y11	Z11	X12	Y12	Z12	X13	Y13	Z13	X14	Y14	Z14	X15	Y15	Z15	X16	Y16	Z16	X17	Y17	Z17	X18	Y18	Z18	X19	Y19	Z19	X20	Y20	Z20	X21	Y21	Z21	X22	Y22	Z22	X23	Y23	Z23	X24	Y24	Z24	X25	Y25	Z25	X26	Y26	Z26	X27	Y27	Z27	
34	0.6538461538461539	0.3371587666356371	0.506658050995106	0.9906224138936691	0.33252038428657066	0.6428201767558424	1.459789406482949	0.3260337930768005	0.7791967374001786	1.9023970887324735	0.2825121672093544	0.5032069741667757	1.9346205770805094	0.35761446064825336	0.5396427409923708	1.9328429226915191	0.3041028779157333	0.8585973671577569	1.9541607511907422	0.11965518150622653	0.5256239346361715	0.9952369539737781	0.1226234786219753	0.6457011146172714	1.4627844729581936	0.12215913377723675	0.7367900666896994	1.878490403227235	0.12883866528128762	0.5294143090672558	1.9308329506590733	0.06977352086216515	0.5955131463384449	1.950359036996536	0.1358239419506059	0.8443299607699204	1.9334483024210443	0.21149567201010158	0.4199997406240099	0.42438944632982994	0.22687762934535655	0.30531401574345796	0.19230572112504768	0.21585087980723583	0.26882507212536133	0.3449846232127042	0.35875640516546947	0.3956467039976874	0.5138151200842398	0.4149174935829768	0.49784117226249053	0.7993042007249032	0.44173795977340374	0.41576107865383044	1.0462793546384082	0.40450956435914814	0.41283990981450164	1.1587085575202614	0.42388029409747535	0.3900060514760762	1.1784271981449268	0.43278022246223297	0.46330709160666045	1.1915916950412735	0.06181472656490637	0.4089450749951201	0.5152880960516568	0.0258087669021879	0.5071619550030869	0.787512951098936	0.009157088315265722	0.5008942169408199	1.0502043170664774	0.047328868232312526	0.4691725911945502	1.1459377597677494	0.026911942011018132	0.4549226571408867	1.1646188892115021	-0.008282128125840532	0.5321033602635264	1.1650278614441445
35	0.6730769230769231	0.33736303672255163	0.5057886306745007	0.9919020436498707	0.33254642989161975	0.6428558419704735	1.4598822741638782	0.3262936853578033	0.7781908412934953	1.9007399634440774	0.28147752655059216	0.5030312962880467	1.9345494523064528	0.35675377352689397	0.5398261044639369	1.9350573048599715	0.30287589279469057	0.8580553051729506	1.954238471242134	0.1193907060140135	0.5263037347654129	0.9961708945300619	0.12283720551116951	0.6465017217464759	1.463181579607272	0.12237019204022365	0.7362204008040313	1.8797154223809427	0.13002063021512478	0.5348154370164201	1.9331152565423726	0.07005082732887932	0.5952997256486373	1.949064526005482	0.13659530632788333	0.8360040148598786	1.9333262020451818	0.2115217796432893	0.4199343051508704	0.42438642180637126	0.22686206439613454	0.3052548220576212	0.19230748242727366	0.21581104703238924	0.2685701918820249	0.3450402341865768	0.3586587507614847	0.3955833896155395	0.513796666419974	0.41491429019091053	0.4977359770815995	0.7992315378927216	0.4411322510016054	0.41461517196360465	1.045460215626788	0.402533652906168	0.4127650596191075	1.158830995306936	0.4237159937117188	0.38930834207210563	1.1768546171206251	0.4326107783250194	0.4674760432783204	1.1916921369149738	0.06179367237101709	0.40879074003025323	0.5153336854825884	0.024449324183162518	0.5118868701760709	0.7876851427951794	0.009497671232854485	0.5000776722329044	1.0494879917935922	0.047258459088058674	0.4685270742392661	1.1459904082665138	0.02609587117870806	0.4571612693381004	1.1615992651069817	-0.008202039918528588	0.5319782862396961	1.1649447890581879
36	0.6923076923076923	0.3371175872030565	0.5066339069490386	0.9934425085406119	0.33254223832679003	0.6428971902820786	1.4598566287600732	0.32685740444282513	0.7759667267584048	1.8980764193685298	0.2814116757344836	0.5041624313565981	1.935039515034767	0.357422045288743	0.540593040314984	1.9371349003535525	0.30111968327343885	0.8574111804388789	1.9541502799597825	0.11970158342077372	0.5256095770505549	0.9961950719931809	0.12276414557411809	0.6464761591736543	1.4646393706289773	0.12263659612837448	0.7354432373582741	1.8812503251428485	0.13084582675145484	0.5385465399935663	1.9346412484049023	0.07025706553641296	0.5950011682678541	1.9472455930505137	0.13835112032154867	0.8269093012025116	1.9328005318830974	0.21154041718460434	0.41978953357504317	0.42438289311407323	0.22683122101217662	0.3051803214593385	0.19229751910397166	0.21584650926358678	0.2685095617296486	0.3450755374991319	0.35863986706304823	0.39554931219925044	0.5137907374967815	0.4149333554392154	0.4977262944011568	0.7991752064488978	0.43976586168258974	0.4115248973741042	1.0437632165311512	0.3998669421350613	0.4134202507806678	1.1589972259940073	0.42289073801900867	0.38772375707680595	1.1734189745553436	0.432712758710634	0.4668947263723625	1.1904289538768866	0.06175394424141528	0.4086063130090695	0.5153750386306742	0.024090266022804063	0.5137625147995643	0.7877045423637128	0.00977283731646632	0.49944323416556313	1.0483456287742334	0.04752955612541244	0.46802799877697265	1.1457086987855738	0.02570093834423339	0.4578919840318332	1.1573774369791032	-0.008169206228520489	0.5322345646965988	1.1649047771244962
37	0.7115384615384616	0.3369040994764107	0.5074702464876	0.9945007795269287	0.3325244997236466	0.6429712301796017	1.4598074079650196	0.32759649014555403	0.7738339388346441	1.8958723126548365	0.28206169838352163	0.5069469342708744	1.936293071975702	0.359022439769461	0.5427066057188429	1.9370002643038176	0.29988450055359595	0.8570452162561443	1.9539662905222146	0.12107762057952665	0.5221679542097707	0.9959640661814615	0.12292105675959131	0.6459620924227804	1.4660525029424494	0.12280315677172904	0.7349511706300772	1.8823195334913687	0.13107960256903062	0.5395464211136609	1.9349782660585404	0.07034367517893211	0.5947713103203558	1.9459518478394622	0.14064552153906792	0.8237814718586673	1.9327791271601367	0.21154956482619278	0.4196595026636482	0.4243781800205583	0.22682979284855334	0.3051208929096749	0.19228605303895266	0.21589744231638028	0.26855101220537403	0.3450906461256606	0.3586540531482659	0.39555745815251037	0.5138028659866712	0.4150367705603688	0.49819227940634225	0.7991904904623172	0.4381602099826511	0.4074025835902956	1.042276991044834	0.39707744700359854	0.41601808684955016	1.1590363374665331	0.4210904150832137	0.3867809841834482	1.171198450531596	0.4309837550711532	0.4652582895856958	1.1892792029844799	0.06190362431859597	0.4093473517065253	0.5153650794643272	0.024227543897587363	0.5135358032900217	0.7881436793532479	0.009897928962447856	0.4990554604561545	1.0463689904307922	0.047962019062057056	0.46684461578242625	1.144546355276868	0.026051043119045214	0.4544965055594173	1.1543784995336368	-0.008180420332093107	0.5322553458070376	1.1648388321734315
38	0.7307692307692307	0.33684548113294277	0.5077790755855578	0.9948235359839559	0.3325011646612821	0.643016829421596	1.4597477255556366	0.32811632274974484	0.7728529428846037	1.894962414566111	0.28328105580097357	0.511001566266651	1.9380943001614908	0.36055187159129365	0.5456983135272078	1.9354461609468643	0.2995508462376152	0.8570018752407524	1.9537424972004875	0.12308760831550938	0.5173949926512686	0.9964572070484913	0.12398511219907071	0.6458706837815862	1.4665818727189697	0.1228293563101719	0.7348779478406058	1.8826340337482197	0.13100800388626666	0.539212150083126	1.9347043622751694	0.07034829663751233	0.5946799147519555	1.9454855446617005	0.14217016333178778	0.8257121945701874	1.933527224511226	0.21154988313580247	0.41959078732172206	0.42436386647633195	0.2268734803659755	0.3050878879049014	0.19228096218016888	0.21591770677561029	0.2686062217122979	0.3450936455597053	0.35867105393890414	0.3955960574212101	0.5138354247982564	0.4153344327739969	0.49944570965019125	0.7993025948119712	0.43680186851582903	0.4032269233592398	1.0422451421998435	0.3940701678826863	0.4200285717785431	1.1588421835079499	0.41805515535076065	0.38798552260801467	1.171483227661595	0.427194199725384	0.4645833729387234	1.1890080525153799	0.06256644220761617	0.412476481147723	0.5152584336445886	0.024418337410066188	0.5123472146418656	0.7892267001426538	0.009823841329442851	0.49893548599413656	1.0428077005093277	0.04886280964906813	0.46335379384277114	1.142293950874977	0.026200809931466	0.4477766833594901	1.152822468539651	-0.007935434005690937	0.5298060872795128	1.1643737488989259
39	0.75	0.336859119094579	0.5077614850062535	0.9948597840226739	0.3324738176045008	0.6429908340336113	1.4596731488448624	0.3282829296007997	0.7728790625709883	1.8949189911580877	0.28466379830157734	0.517106051388395	1.9407029233988138	0.361065112547682	0.5467520007448504	1.9349126387039228	0.29964998405240784	0.8570780258596462	1.9535100742758558	0.12454482759057177	0.5144612244466793	0.9976880603302882	0.12573515985031236	0.6465838937154025	1.4665442091520464	0.1227928203497293	0.7349613273571003	1.882511920409695	0.13091606525334873	0.5389159849293579	1.9344142528272856	0.07032014483782169	0.5946193422438897	1.9453375223903058	0.14183174681941008	0.8277672634392177	1.9340584427611494	0.21154763143708638	0.419558686990654	0.4243336138734977	0.22693748502717906	0.30507008237651734	0.19228432730440326	0.21590342786758868	0.2686358735180913	0.34509133718952556	0.3586866321757721	0.39563680095987586	0.5138798316997949	0.4156831440030275	0.5008508048533786	0.7998131802762011	0.4354900011131221	0.39858670265754537	1.0432437982471847	0.39073397035069596	0.4231352672620081	1.1585978681976035	0.4138315983837757	0.39178039437036993	1.1729680758518843	0.4231039019524652	0.4645944308129643	1.1891394418082093	0.06380077244953754	0.4182232766621948	0.5150552215208135	0.024805981452129144	0.511465503707997	0.7903033541227822	0.009648636597717614	0.49861693436515725	1.0385895173683317	0.05002570297710279	0.4581928615292008	1.1396232157623196	0.025598396994112614	0.44120113929773896	1.151662332651088	-0.007043743191038674	0.5235282897317064	1.1632802828815536
